<svg xmlns="http://www.w3.org/2000/svg" viewBox="0 0 1200 800" width="1200" height="800" role="img" aria-label="Placeholder: Cafeteria"><defs>
    <linearGradient id="bg" x1="0" y1="0" x2="0" y2="1"><stop offset="0" stop-color="#f4ead9"/><stop offset="1" stop-color="#fbf7ee"/></linearGradient>
    <radialGradient id="glow" cx="0.5" cy="0.3" r="0.7"><stop offset="0" stop-color="#b0713a" stop-opacity="0.13"/><stop offset="1" stop-color="#b0713a" stop-opacity="0"/></radialGradient>
  </defs>
  <rect width="1200" height="800" fill="url(#bg)"/><rect width="1200" height="800" fill="url(#glow)"/>
  <line x1="220" y1="90" x2="220" y2="520" stroke="#b0713a" stroke-opacity="0.35" stroke-width="6" stroke-linecap="round"/>
  <path d="M130 90l180 0 -30 40-120 0z" fill="#f6c177" fill-opacity="0.95"/>
  <circle cx="220" cy="96" r="10" fill="#f6c177"/>
  <line x1="980" y1="90" x2="980" y2="520" stroke="#b0713a" stroke-opacity="0.35" stroke-width="6" stroke-linecap="round"/>
  <path d="M890 90l180 0 -30 40-120 0z" fill="#f6c177" fill-opacity="0.95"/>
  <circle cx="980" cy="96" r="10" fill="#f6c177"/>
  <rect x="130" y="560" width="940" height="22" rx="6" fill="#b0713a" fill-opacity="0.85"/>
  <rect x="110" y="520" width="980" height="20" rx="8" fill="#b0713a" fill-opacity="0.45"/>
  <rect x="130" y="582" width="260" height="12" rx="6" fill="#b0713a" fill-opacity="0.4"/>
  <rect x="810" y="582" width="260" height="12" rx="6" fill="#b0713a" fill-opacity="0.4"/>
  <rect x="200" y="360" width="150" height="160" rx="12" fill="#f2b28c"/>
  <circle cx="228" cy="392" r="10" fill="#ffffff" fill-opacity="0.85"/>
  <path d="M240 420h90" stroke="#b0713a" stroke-opacity="0.4" stroke-width="6" stroke-linecap="round"/>
  <path d="M240 440h70" stroke="#b0713a" stroke-opacity="0.3" stroke-width="6" stroke-linecap="round"/>
  <path d="M240 460h80" stroke="#b0713a" stroke-opacity="0.4" stroke-width="6" stroke-linecap="round"/>
  <path d="M240 480h56" stroke="#b0713a" stroke-opacity="0.3" stroke-width="6" stroke-linecap="round"/>
  <rect x="640" y="360" width="150" height="160" rx="12" fill="#f2b28c"/>
  <circle cx="668" cy="392" r="10" fill="#ffffff" fill-opacity="0.85"/>
  <path d="M680 420h90" stroke="#b0713a" stroke-opacity="0.4" stroke-width="6" stroke-linecap="round"/>
  <path d="M680 440h70" stroke="#b0713a" stroke-opacity="0.3" stroke-width="6" stroke-linecap="round"/>
  <path d="M680 460h80" stroke="#b0713a" stroke-opacity="0.4" stroke-width="6" stroke-linecap="round"/>
  <path d="M680 480h56" stroke="#b0713a" stroke-opacity="0.3" stroke-width="6" stroke-linecap="round"/>
  <rect x="900" y="140" width="120" height="180" rx="14" fill="#f2c94c" fill-opacity="0.9"/>
  <rect x="900" y="140" width="120" height="44" rx="14" fill="#f6a24d"/>
  <circle cx="930" cy="196" r="22" fill="#fff" fill-opacity="0.3"/>
  <rect x="180" y="140" width="120" height="180" rx="14" fill="#88b3d9" fill-opacity="0.9"/>
  <rect x="180" y="140" width="120" height="44" rx="14" fill="#6fa3cd"/>
  <circle cx="210" cy="196" r="22" fill="#fff" fill-opacity="0.3"/><rect x="0" y="0" width="1200" height="800" fill="none" stroke="#b0713a" stroke-opacity="0.25" stroke-width="3"/><rect x="1016" y="28" width="156" height="34" rx="17" fill="#b0713a" fill-opacity="0.1" stroke="#b0713a" stroke-opacity="0.35"/><text x="1094" y="51" text-anchor="middle" font-family="system-ui, -apple-system, sans-serif" font-size="15" font-weight="600" letter-spacing="1" fill="#b0713a">CAFETERIA</text><text x="600" y="764" text-anchor="middle" font-family="system-ui, -apple-system, sans-serif" font-size="17" fill="#b0713a" fill-opacity="0.6">Add your photo here</text></svg>
