<svg xmlns="http://www.w3.org/2000/svg" viewBox="0 0 1200 800" width="1200" height="800" role="img" aria-label="Placeholder: Event Cover"><defs>
    <linearGradient id="bg" x1="0" y1="0" x2="0" y2="1"><stop offset="0" stop-color="#f4e3da"/><stop offset="1" stop-color="#fbf4f0"/></linearGradient>
    <radialGradient id="glow" cx="0.5" cy="0.3" r="0.7"><stop offset="0" stop-color="#b5552a" stop-opacity="0.14"/><stop offset="1" stop-color="#b5552a" stop-opacity="0"/></radialGradient>
  </defs>
  <rect width="1200" height="800" fill="url(#bg)"/><rect width="1200" height="800" fill="url(#glow)"/>
  <path d="M0 210q150 70 300 0t300 0 300 0 300 0" fill="none" stroke="#b5552a" stroke-opacity="0.7" stroke-width="10"/>
  <path d="M20 210l56 0 10 60-76 0z" fill="#f2c94c" fill-opacity="0.95"/>
  <path d="M560 210l56 0 10 60-76 0z" fill="#f2c94c" fill-opacity="0.95"/>
  <path d="M1100 210l56 0 10 60-76 0z" fill="#f2c94c" fill-opacity="0.95"/>
  <path d="M290 210l50 0 8 60-66 0z" fill="#7cb66a" fill-opacity="0.9"/>
  <path d="M850 210l50 0 8 60-66 0z" fill="#6cc3dd" fill-opacity="0.9"/>
  <rect x="320" y="330" width="560" height="150" rx="12" fill="#b5552a" fill-opacity="0.85"/>
  <rect x="344" y="358" width="220" height="12" rx="6" fill="#ffffff" fill-opacity="0.95"/>
  <rect x="344" y="386" width="300" height="12" rx="6" fill="#ffffff" fill-opacity="0.5"/>
  <rect x="344" y="414" width="260" height="12" rx="6" fill="#ffffff" fill-opacity="0.5"/>
  <rect x="344" y="442" width="120" height="18" rx="9" fill="#f2c94c"/>
  <circle cx="150" cy="470" r="34" fill="#f26d6d" fill-opacity="0.85"/>
  <circle cx="150" cy="470" r="12" fill="#fff" fill-opacity="0.3"/>
  <path d="M96 470h-24M54 470h-20" stroke="#b5552a" stroke-opacity="0.4" stroke-width="4" stroke-linecap="round"/>
  <path d="M150 420v-24M150 380v-16" stroke="#b5552a" stroke-opacity="0.4" stroke-width="4" stroke-linecap="round"/>
  <circle cx="1050" cy="440" r="28" fill="#7cb66a" fill-opacity="0.9"/>
  <circle cx="1050" cy="440" r="10" fill="#fff" fill-opacity="0.3"/>
  <path d="M1002 440h-20M968 440h-14" stroke="#b5552a" stroke-opacity="0.4" stroke-width="4" stroke-linecap="round"/>
  <circle cx="320" cy="180" r="10" fill="#f2c94c" fill-opacity="0.8"/>
  <circle cx="600" cy="150" r="8" fill="#f26d6d" fill-opacity="0.8"/>
  <circle cx="880" cy="180" r="10" fill="#6cc3dd" fill-opacity="0.8"/>
  <circle cx="500" cy="130" r="6" fill="#7cb66a" fill-opacity="0.8"/>
  <circle cx="760" cy="132" r="6" fill="#f2c94c" fill-opacity="0.8"/>
  <rect x="0" y="640" width="1200" height="120" fill="#b5552a" fill-opacity="0.15"/>
  <path d="M120 690h260M820 690h260" stroke="#b5552a" stroke-opacity="0.3" stroke-width="8" stroke-linecap="round"/><rect x="0" y="0" width="1200" height="800" fill="none" stroke="#b5552a" stroke-opacity="0.25" stroke-width="3"/><rect x="1016" y="28" width="156" height="34" rx="17" fill="#b5552a" fill-opacity="0.1" stroke="#b5552a" stroke-opacity="0.35"/><text x="1094" y="51" text-anchor="middle" font-family="system-ui, -apple-system, sans-serif" font-size="15" font-weight="600" letter-spacing="1" fill="#b5552a">EVENT COVER</text><text x="600" y="764" text-anchor="middle" font-family="system-ui, -apple-system, sans-serif" font-size="17" fill="#b5552a" fill-opacity="0.6">Add your photo here</text></svg>
