<svg xmlns="http://www.w3.org/2000/svg" viewBox="0 0 1200 800" width="1200" height="800" role="img" aria-label="Placeholder: News Cover"><defs>
    <linearGradient id="bg" x1="0" y1="0" x2="0" y2="1"><stop offset="0" stop-color="#e2eeed"/><stop offset="1" stop-color="#f2f8f7"/></linearGradient>
    <radialGradient id="glow" cx="0.5" cy="0.3" r="0.7"><stop offset="0" stop-color="#3d7a7a" stop-opacity="0.14"/><stop offset="1" stop-color="#3d7a7a" stop-opacity="0"/></radialGradient>
  </defs>
  <rect width="1200" height="800" fill="url(#bg)"/><rect width="1200" height="800" fill="url(#glow)"/>
  <path d="M360 300l480 0 0 360-480 0z" fill="#fdfcfb" stroke="#3d7a7a" stroke-opacity="0.4" stroke-width="4"/>
  <path d="M840 300l60 0 0 360-60 0z" fill="#f3f1ea" stroke="#3d7a7a" stroke-opacity="0.35" stroke-width="4"/>
  <path d="M360 352l480 0" stroke="#3d7a7a" stroke-opacity="0.4" stroke-width="4"/>
  <path d="M384 330l120 0" stroke="#3d7a7a" stroke-opacity="0.75" stroke-width="8" stroke-linecap="round"/>
  <rect x="384" y="376" width="180" height="150" fill="#dbe7ee" stroke="#3d7a7a" stroke-opacity="0.3"/>
  <circle cx="474" cy="430" r="26" fill="#f2c94c" fill-opacity="0.8"/>
  <rect x="588" y="376" width="228" height="10" rx="5" fill="#3d7a7a" fill-opacity="0.6"/>
  <rect x="588" y="398" width="198" height="8" rx="4" fill="#3d7a7a" fill-opacity="0.3"/>
  <rect x="588" y="416" width="214" height="8" rx="4" fill="#3d7a7a" fill-opacity="0.3"/>
  <rect x="588" y="434" width="160" height="8" rx="4" fill="#3d7a7a" fill-opacity="0.3"/>
  <rect x="384" y="552" width="200" height="10" rx="5" fill="#3d7a7a" fill-opacity="0.55"/>
  <rect x="384" y="574" width="240" height="8" rx="4" fill="#3d7a7a" fill-opacity="0.28"/>
  <rect x="384" y="592" width="220" height="8" rx="4" fill="#3d7a7a" fill-opacity="0.28"/>
  <rect x="608" y="552" width="208" height="10" rx="5" fill="#3d7a7a" fill-opacity="0.55"/>
  <rect x="608" y="574" width="188" height="8" rx="4" fill="#3d7a7a" fill-opacity="0.28"/>
  <rect x="608" y="592" width="160" height="8" rx="4" fill="#3d7a7a" fill-opacity="0.28"/>
  <circle cx="972" cy="610" r="74" fill="#ffffff" stroke="#3d7a7a" stroke-opacity="0.5" stroke-width="10"/>
  <circle cx="948" cy="588" r="8" fill="#3d7a7a" fill-opacity="0.5"/>
  <path d="M1014 652l44 44" stroke="#3d7a7a" stroke-opacity="0.6" stroke-width="12" stroke-linecap="round"/>
  <path d="M936 548v-20" stroke="#3d7a7a" stroke-opacity="0.3" stroke-width="8" stroke-linecap="round"/>
  <path d="M880 520l30-30" stroke="#3d7a7a" stroke-opacity="0.3" stroke-width="8" stroke-linecap="round"/><rect x="0" y="0" width="1200" height="800" fill="none" stroke="#3d7a7a" stroke-opacity="0.25" stroke-width="3"/><rect x="1016" y="28" width="156" height="34" rx="17" fill="#3d7a7a" fill-opacity="0.1" stroke="#3d7a7a" stroke-opacity="0.35"/><text x="1094" y="51" text-anchor="middle" font-family="system-ui, -apple-system, sans-serif" font-size="15" font-weight="600" letter-spacing="1" fill="#3d7a7a">NEWS COVER</text><text x="600" y="764" text-anchor="middle" font-family="system-ui, -apple-system, sans-serif" font-size="17" fill="#3d7a7a" fill-opacity="0.6">Add your photo here</text></svg>
