<svg xmlns="http://www.w3.org/2000/svg" viewBox="0 0 1200 800" width="1200" height="800" role="img" aria-label="Placeholder: Sports Field"><defs>
    <linearGradient id="bg" x1="0" y1="0" x2="0" y2="1"><stop offset="0" stop-color="#d9ecd6"/><stop offset="1" stop-color="#eef7ec"/></linearGradient>
    <radialGradient id="glow" cx="0.5" cy="0.34" r="0.7"><stop offset="0" stop-color="#3f8f3f" stop-opacity="0.14"/><stop offset="1" stop-color="#3f8f3f" stop-opacity="0"/></radialGradient>
  </defs>
  <rect width="1200" height="800" fill="url(#bg)"/><rect width="1200" height="800" fill="url(#glow)"/>
  <ellipse cx="600" cy="470" rx="470" ry="230" fill="none" stroke="#fff" stroke-opacity="0.9" stroke-width="16"/>
  <ellipse cx="600" cy="470" rx="470" ry="230" fill="none" stroke="#3f8f3f" stroke-opacity="0.35" stroke-width="4"/>
  <ellipse cx="600" cy="470" rx="404" ry="188" fill="none" stroke="#3f8f3f" stroke-opacity="0.4" stroke-width="5" stroke-dasharray="30 22"/>
  <rect x="220" y="330" width="760" height="280" fill="#5fae55" fill-opacity="0.9" rx="10"/>
  <ellipse cx="600" cy="470" rx="420" ry="120" fill="none" stroke="#fff" stroke-opacity="0.85" stroke-width="8"/>
  <ellipse cx="600" cy="470" rx="70" ry="70" fill="none" stroke="#fff" stroke-opacity="0.85" stroke-width="8"/>
  <circle cx="600" cy="470" r="12" fill="#fff" fill-opacity="0.9"/>
  <rect x="220" y="404" width="120" height="132" fill="none" stroke="#fff" stroke-opacity="0.85" stroke-width="8"/>
  <rect x="860" y="404" width="120" height="132" fill="none" stroke="#fff" stroke-opacity="0.85" stroke-width="8"/>
  <rect x="238" y="372" width="84" height="16" fill="#fff" fill-opacity="0.9"/>
  <rect x="878" y="372" width="84" height="16" fill="#fff" fill-opacity="0.9"/>
  <path d="M240 470l-40 0M962 470l-42 0" stroke="#fff" stroke-opacity="0.9" stroke-width="8"/>
  <path d="M220 330l760 0 -60-36 -640 0z" fill="#3f8f3f" fill-opacity="0.35"/>
  <rect x="546" y="200" width="108" height="130" fill="#fff" fill-opacity="0.95"/>
  <path d="M546 200v-24a20 20 0 0 1 40-10 20 20 0 0 1 40 10v24z" fill="#fff" fill-opacity="0.95"/>
  <path d="M600 188l0 142" stroke="#3f8f3f" stroke-opacity="0.4" stroke-width="6"/>
  <rect x="546" y="690" width="108" height="60" fill="#fff" fill-opacity="0.9" rx="8"/>
  <path d="M560 690v-44a22 22 0 0 1 44 0v44z" fill="#fff" fill-opacity="0.9"/>
  <path d="M600 670l0 60" stroke="#3f8f3f" stroke-opacity="0.4" stroke-width="6"/><rect x="0" y="0" width="1200" height="800" fill="none" stroke="#3f8f3f" stroke-opacity="0.25" stroke-width="3"/><rect x="1016" y="28" width="156" height="34" rx="17" fill="#3f8f3f" fill-opacity="0.1" stroke="#3f8f3f" stroke-opacity="0.35"/><text x="1094" y="51" text-anchor="middle" font-family="system-ui, -apple-system, sans-serif" font-size="15" font-weight="600" letter-spacing="1" fill="#3f8f3f">SPORTS FIELD</text><text x="600" y="764" text-anchor="middle" font-family="system-ui, -apple-system, sans-serif" font-size="17" fill="#3f8f3f" fill-opacity="0.6">Add your photo here</text></svg>
